{
	"asset":{
		"generator":"Khronos glTF Blender I/O v4.5.48",
		"version":"2.0"
	},
	"extensionsUsed":[
		"KHR_materials_unlit"
	],
	"scene":0,
	"scenes":[
		{
			"name":"Scene",
			"nodes":[
				0,
				1,
				2
			]
		}
	],
	"nodes":[
		{
			"mesh":0,
			"name":"buddha",
			"rotation":[
				0.70710688829422,
				0,
				0,
				0.7071066498756409
			],
			"scale":[
				2,
				2.000000238418579,
				2.000000238418579
			],
			"translation":[
				0,
				1.9411840438842773,
				-0.8391280174255371
			]
		},
		{
			"mesh":1,
			"name":"Head1",
			"rotation":[
				0.4999999701976776,
				0.4999999701976776,
				-0.5,
				0.5
			],
			"translation":[
				-3.074927568435669,
				1.4846205711364746,
				1.5896772146224976
			]
		},
		{
			"mesh":2,
			"name":"Head2",
			"rotation":[
				0.4999999701976776,
				-0.4999999701976776,
				0.5,
				0.5
			],
			"translation":[
				3.0744051933288574,
				1.4846205711364746,
				1.5896772146224976
			]
		}
	],
	"materials":[
		{
			"doubleSided":true,
			"extensions":{
				"KHR_materials_unlit":{}
			},
			"name":"Material.010",
			"pbrMetallicRoughness":{
				"baseColorTexture":{
					"index":0
				},
				"metallicFactor":0,
				"roughnessFactor":0.9,
				"baseColorFactor": [ 7.0, 7.0, 7.0, 7.0 ]

			}
		},
		{
			"doubleSided":true,
			"extensions":{
				"KHR_materials_unlit":{}
			},
			"name":"Material.002",
			"pbrMetallicRoughness":{
				"baseColorTexture":{
					"index":1
				},
				"metallicFactor":0,
				"roughnessFactor":0.9,
				"baseColorFactor": [ 7.0, 7.0, 7.0, 7.0 ]
			}
		},
		{
			"doubleSided":true,
			"extensions":{
				"KHR_materials_unlit":{}
			},
			"name":"Material.001",
			"pbrMetallicRoughness":{
				"baseColorTexture":{
					"index":2
				},
				"metallicFactor":0,
				"roughnessFactor":0.9,
				"baseColorFactor": [ 7.0, 7.0, 7.0, 7.0 ]
			}
		}
	],
	"meshes":[
		{
			"name":"textured_mesh",
			"primitives":[
				{
					"attributes":{
						"POSITION":0,
						"NORMAL":1,
						"TEXCOORD_0":2
					},
					"indices":3,
					"material":0
				}
			]
		},
		{
			"name":"textured_mesh.001",
			"primitives":[
				{
					"attributes":{
						"POSITION":4,
						"NORMAL":5,
						"TEXCOORD_0":6
					},
					"indices":7,
					"material":1
				}
			]
		},
		{
			"name":"textured_mesh.002",
			"primitives":[
				{
					"attributes":{
						"POSITION":8,
						"NORMAL":9,
						"TEXCOORD_0":10
					},
					"indices":7,
					"material":2
				}
			]
		}
	],
	"textures":[
		{
			"sampler":0,
			"source":0
		},
		{
			"sampler":0,
			"source":1
		},
		{
			"sampler":0,
			"source":1
		}
	],
	"images":[
		{
			"mimeType":"image/jpeg",
			"name":"textured_mesh",
			"uri":"textured_mesh.jpg"
		},
		{
			"mimeType":"image/jpeg",
			"name":"textured_mesh.jpg",
			"uri":"textured_mesh.jpg.jpg"
		}
	],
	"accessors":[
		{
			"bufferView":0,
			"componentType":5126,
			"count":25670,
			"max":[
				0.7738209962844849,
				0.4268290102481842,
				1.0004429817199707
			],
			"min":[
				-0.7810919880867004,
				-0.42280900478363037,
				-0.994500994682312
			],
			"type":"VEC3"
		},
		{
			"bufferView":1,
			"componentType":5126,
			"count":25670,
			"type":"VEC3"
		},
		{
			"bufferView":2,
			"componentType":5126,
			"count":25670,
			"type":"VEC2"
		},
		{
			"bufferView":3,
			"componentType":5123,
			"count":120000,
			"type":"SCALAR"
		},
		{
			"bufferView":4,
			"componentType":5126,
			"count":25467,
			"max":[
				0.6892300248146057,
				0.7154369950294495,
				0.9997439980506897
			],
			"min":[
				-0.6939939856529236,
				-0.7482420206069946,
				-0.9942290186882019
			],
			"type":"VEC3"
		},
		{
			"bufferView":5,
			"componentType":5126,
			"count":25467,
			"type":"VEC3"
		},
		{
			"bufferView":6,
			"componentType":5126,
			"count":25467,
			"type":"VEC2"
		},
		{
			"bufferView":7,
			"componentType":5123,
			"count":120000,
			"type":"SCALAR"
		},
		{
			"bufferView":8,
			"componentType":5126,
			"count":25467,
			"max":[
				0.6892300248146057,
				0.7154369950294495,
				0.9997439980506897
			],
			"min":[
				-0.6939939856529236,
				-0.7482420206069946,
				-0.9942290186882019
			],
			"type":"VEC3"
		},
		{
			"bufferView":9,
			"componentType":5126,
			"count":25467,
			"type":"VEC3"
		},
		{
			"bufferView":10,
			"componentType":5126,
			"count":25467,
			"type":"VEC2"
		}
	],
	"bufferViews":[
		{
			"buffer":0,
			"byteLength":308040,
			"byteOffset":0,
			"target":34962
		},
		{
			"buffer":0,
			"byteLength":308040,
			"byteOffset":308040,
			"target":34962
		},
		{
			"buffer":0,
			"byteLength":205360,
			"byteOffset":616080,
			"target":34962
		},
		{
			"buffer":0,
			"byteLength":240000,
			"byteOffset":821440,
			"target":34963
		},
		{
			"buffer":0,
			"byteLength":305604,
			"byteOffset":1061440,
			"target":34962
		},
		{
			"buffer":0,
			"byteLength":305604,
			"byteOffset":1367044,
			"target":34962
		},
		{
			"buffer":0,
			"byteLength":203736,
			"byteOffset":1672648,
			"target":34962
		},
		{
			"buffer":0,
			"byteLength":240000,
			"byteOffset":1876384,
			"target":34963
		},
		{
			"buffer":0,
			"byteLength":305604,
			"byteOffset":2116384,
			"target":34962
		},
		{
			"buffer":0,
			"byteLength":305604,
			"byteOffset":2421988,
			"target":34962
		},
		{
			"buffer":0,
			"byteLength":203736,
			"byteOffset":2727592,
			"target":34962
		}
	],
	"samplers":[
		{
			"magFilter":9729,
			"minFilter":9987
		}
	],
	"buffers":[
		{
			"byteLength":2931328,
			"uri":"Untitled.bin"
		}
	]
}
