{
	"asset":{
		"generator":"Khronos glTF Blender I/O v4.5.48",
		"version":"2.0"
	},
	"extensionsUsed":[
		"KHR_materials_unlit"
	],
	"scene":0,
	"scenes":[
		{
			"name":"Scene",
			"nodes":[
				0
			]
		}
	],
	"nodes":[
		{
			"mesh":0,
			"name":"textured_mesh",
			"rotation":[
				0.70710688829422,
				0,
				0,
				0.7071066498756409
			],
			"scale":[
				6.057582378387451,
				6.057583332061768,
				6.057583332061768
			],
			"translation":[
				0,
				4.472233772277832,
				0
			]
		}
	],
	"materials":[
		{
			"doubleSided":true,
			"extensions":{
				"KHR_materials_unlit":{}
			},
			"name":"Material.015",
			"pbrMetallicRoughness":{
				"baseColorTexture":{
					"index":0
				},
				"metallicFactor":0,
				"roughnessFactor":0.9,
				"baseColorFactor": [ 7.0, 7.0, 7.0, 7.0 ]

			}
		}
	],
	"meshes":[
		{
			"name":"textured_mesh",
			"primitives":[
				{
					"attributes":{
						"POSITION":0,
						"NORMAL":1,
						"TEXCOORD_0":2
					},
					"indices":3,
					"material":0
				}
			]
		}
	],
	"textures":[
		{
			"sampler":0,
			"source":0
		}
	],
	"images":[
		{
			"mimeType":"image/jpeg",
			"name":"textured_mesh",
			"uri":"textured_mesh.jpg"
		}
	],
	"accessors":[
		{
			"bufferView":0,
			"componentType":5126,
			"count":30964,
			"max":[
				0.33949100971221924,
				0.5068380236625671,
				0.7520819902420044
			],
			"min":[
				-0.35797399282455444,
				-0.5021560192108154,
				-0.831870973110199
			],
			"type":"VEC3"
		},
		{
			"bufferView":1,
			"componentType":5126,
			"count":30964,
			"type":"VEC3"
		},
		{
			"bufferView":2,
			"componentType":5126,
			"count":30964,
			"type":"VEC2"
		},
		{
			"bufferView":3,
			"componentType":5123,
			"count":120000,
			"type":"SCALAR"
		}
	],
	"bufferViews":[
		{
			"buffer":0,
			"byteLength":371568,
			"byteOffset":0,
			"target":34962
		},
		{
			"buffer":0,
			"byteLength":371568,
			"byteOffset":371568,
			"target":34962
		},
		{
			"buffer":0,
			"byteLength":247712,
			"byteOffset":743136,
			"target":34962
		},
		{
			"buffer":0,
			"byteLength":240000,
			"byteOffset":990848,
			"target":34963
		}
	],
	"samplers":[
		{
			"magFilter":9729,
			"minFilter":9987
		}
	],
	"buffers":[
		{
			"byteLength":1230848,
			"uri":"Untitled.bin"
		}
	]
}
