{
	"asset":{
		"generator":"Khronos glTF Blender I/O v4.5.48",
		"version":"2.0"
	},
	"extensionsUsed":[
		"KHR_materials_unlit"
	],
	"scene":0,
	"scenes":[
		{
			"name":"Scene",
			"nodes":[
				0,
				1
			]
		}
	],
	"nodes":[
		{
			"mesh":0,
			"name":"textured_mesh",
			"rotation":[
				0.7071068286895752,
				0,
				0,
				0.7071068286895752
			],
			"scale":[
				1.4614875316619873,
				1.4614875316619873,
				1.4614875316619873
			],
			"translation":[
				-0.19430184364318848,
				1.3967070579528809,
				-3.978074312210083
			]
		},
		{
			"mesh":1,
			"name":"textured_mesh.001",
			"rotation":[
				0.5039330124855042,
				0.4960358142852783,
				-0.49603578448295593,
				0.5039330124855042
			],
			"scale":[
				0.6683422327041626,
				0.6683422327041626,
				0.6683421730995178
			],
			"translation":[
				-3.9563074111938477,
				0.6810852885246277,
				-1.373397707939148
			]
		}
	],
	"materials":[
		{
			"doubleSided":true,
			"extensions":{
				"KHR_materials_unlit":{}
			},
			"name":"Material.013",
			"pbrMetallicRoughness":{
				"baseColorTexture":{
					"index":0
				},
				"metallicFactor":0,
				"roughnessFactor":0.9,
				"baseColorFactor": [ 7.0, 7.0, 7.0, 7.0 ]
			}
		},
		{
			"doubleSided":true,
			"extensions":{
				"KHR_materials_unlit":{}
			},
			"name":"Material.001",
			"pbrMetallicRoughness":{
				"baseColorTexture":{
					"index":1
				},
				"metallicFactor":0,
				"roughnessFactor":0.9,
				"baseColorFactor": [ 7.0, 7.0, 7.0, 7.0 ]
			}
		}
	],
	"meshes":[
		{
			"name":"textured_mesh",
			"primitives":[
				{
					"attributes":{
						"POSITION":0,
						"NORMAL":1,
						"TEXCOORD_0":2
					},
					"indices":3,
					"material":0
				}
			]
		},
		{
			"name":"textured_mesh.001",
			"primitives":[
				{
					"attributes":{
						"POSITION":4,
						"NORMAL":5,
						"TEXCOORD_0":6
					},
					"indices":7,
					"material":1
				}
			]
		}
	],
	"textures":[
		{
			"sampler":0,
			"source":0
		},
		{
			"sampler":0,
			"source":1
		}
	],
	"images":[
		{
			"mimeType":"image/jpeg",
			"name":"textured_mesh",
			"uri":"textured_mesh.jpg"
		},
		{
			"mimeType":"image/jpeg",
			"name":"textured_mesh",
			"uri":"textured_mesh-1.jpg"
		}
	],
	"accessors":[
		{
			"bufferView":0,
			"componentType":5126,
			"count":27287,
			"max":[
				0.9386249780654907,
				0.4210579991340637,
				1.000648021697998
			],
			"min":[
				-0.935683012008667,
				-0.42736101150512695,
				-0.9935010075569153
			],
			"type":"VEC3"
		},
		{
			"bufferView":1,
			"componentType":5126,
			"count":27287,
			"type":"VEC3"
		},
		{
			"bufferView":2,
			"componentType":5126,
			"count":27287,
			"type":"VEC2"
		},
		{
			"bufferView":3,
			"componentType":5123,
			"count":120000,
			"type":"SCALAR"
		},
		{
			"bufferView":4,
			"componentType":5126,
			"count":23539,
			"max":[
				0.6786620020866394,
				0.21804200112819672,
				1.0002479553222656
			],
			"min":[
				-0.689221978187561,
				-0.2148990035057068,
				-0.9940369725227356
			],
			"type":"VEC3"
		},
		{
			"bufferView":5,
			"componentType":5126,
			"count":23539,
			"type":"VEC3"
		},
		{
			"bufferView":6,
			"componentType":5126,
			"count":23539,
			"type":"VEC2"
		},
		{
			"bufferView":7,
			"componentType":5123,
			"count":120000,
			"type":"SCALAR"
		}
	],
	"bufferViews":[
		{
			"buffer":0,
			"byteLength":327444,
			"byteOffset":0,
			"target":34962
		},
		{
			"buffer":0,
			"byteLength":327444,
			"byteOffset":327444,
			"target":34962
		},
		{
			"buffer":0,
			"byteLength":218296,
			"byteOffset":654888,
			"target":34962
		},
		{
			"buffer":0,
			"byteLength":240000,
			"byteOffset":873184,
			"target":34963
		},
		{
			"buffer":0,
			"byteLength":282468,
			"byteOffset":1113184,
			"target":34962
		},
		{
			"buffer":0,
			"byteLength":282468,
			"byteOffset":1395652,
			"target":34962
		},
		{
			"buffer":0,
			"byteLength":188312,
			"byteOffset":1678120,
			"target":34962
		},
		{
			"buffer":0,
			"byteLength":240000,
			"byteOffset":1866432,
			"target":34963
		}
	],
	"samplers":[
		{
			"magFilter":9729,
			"minFilter":9987
		}
	],
	"buffers":[
		{
			"byteLength":2106432,
			"uri":"site1.bin"
		}
	]
}
