{
	"asset":{
		"generator":"Khronos glTF Blender I/O v4.5.48",
		"version":"2.0"
	},
	"extensionsUsed":[
		"KHR_materials_unlit"
	],
	"scene":0,
	"scenes":[
		{
			"name":"Scene",
			"nodes":[
				0,
				1,
				2,
				3
			]
		}
	],
	"nodes":[
		{
			"mesh":0,
			"name":"textured_mesh",
			"rotation":[
				0.6469805836677551,
				0.28533515334129333,
				-0.28533515334129333,
				0.6469805836677551
			],
			"scale":[
				1.6687054634094238,
				1.6687054634094238,
				1.6687054634094238
			],
			"translation":[
				-4.466360092163086,
				1.3423211574554443,
				0.3593432903289795
			]
		},
		{
			"mesh":1,
			"name":"textured_mesh.001",
			"rotation":[
				0.6189333200454712,
				-0.34193795919418335,
				0.34193792939186096,
				0.6189333200454712
			],
			"scale":[
				1.3331472873687744,
				1.3331472873687744,
				1.3331472873687744
			],
			"translation":[
				3.787195920944214,
				1.3423211574554443,
				0.16930580139160156
			]
		},
		{
			"mesh":2,
			"name":"textured_mesh.002",
			"rotation":[
				0.7071068286895752,
				0,
				0,
				0.7071068286895752
			],
			"scale":[
				1.3331472873687744,
				1.3331472873687744,
				1.3331472873687744
			],
			"translation":[
				1.637410283088684,
				1.3423211574554443,
				-1.3411669731140137
			]
		},
		{
			"mesh":3,
			"name":"textured_mesh.003",
			"rotation":[
				0.7071068286895752,
				0,
				0,
				0.7071068286895752
			],
			"scale":[
				1.3331472873687744,
				1.3331472873687744,
				1.3331472873687744
			],
			"translation":[
				-1.6037840843200684,
				1.3423211574554443,
				-1.224302053451538
			]
		}
	],
	"materials":[
		{
			"doubleSided":true,
			"extensions":{
				"KHR_materials_unlit":{}
			},
			"name":"Material.037",
			"pbrMetallicRoughness":{
				"baseColorTexture":{
					"index":0
				},
				"metallicFactor":0,
				"roughnessFactor":0.9
			}
		},
		{
			"doubleSided":true,
			"extensions":{
				"KHR_materials_unlit":{}
			},
			"name":"Material.001",
			"pbrMetallicRoughness":{
				"baseColorTexture":{
					"index":1
				},
				"metallicFactor":0,
				"roughnessFactor":0.9,
				"baseColorFactor": [ 7.0, 7.0, 7.0, 7.0 ]
				
			}
		},
		{
			"doubleSided":true,
			"extensions":{
				"KHR_materials_unlit":{}
			},
			"name":"Material.041",
			"pbrMetallicRoughness":{
				"baseColorTexture":{
					"index":2
				},
				"metallicFactor":0,
				"roughnessFactor":0.9,
				"baseColorFactor": [ 7.0, 7.0, 7.0, 7.0 ]
			}
		},
		{
			"doubleSided":true,
			"extensions":{
				"KHR_materials_unlit":{}
			},
			"name":"Material.005",
			"pbrMetallicRoughness":{
				"baseColorTexture":{
					"index":3
				},
				"metallicFactor":0,
				"roughnessFactor":0.9,
				"baseColorFactor": [ 7.0, 7.0, 7.0, 7.0 ]

			}
		}
	],
	"meshes":[
		{
			"name":"textured_mesh",
			"primitives":[
				{
					"attributes":{
						"POSITION":0,
						"NORMAL":1,
						"TEXCOORD_0":2
					},
					"indices":3,
					"material":0
				}
			]
		},
		{
			"name":"textured_mesh.001",
			"primitives":[
				{
					"attributes":{
						"POSITION":4,
						"NORMAL":5,
						"TEXCOORD_0":6
					},
					"indices":7,
					"material":1
				}
			]
		},
		{
			"name":"textured_mesh.002",
			"primitives":[
				{
					"attributes":{
						"POSITION":8,
						"NORMAL":9,
						"TEXCOORD_0":10
					},
					"indices":11,
					"material":2
				}
			]
		},
		{
			"name":"textured_mesh.003",
			"primitives":[
				{
					"attributes":{
						"POSITION":12,
						"NORMAL":13,
						"TEXCOORD_0":14
					},
					"indices":15,
					"material":3
				}
			]
		}
	],
	"textures":[
		{
			"sampler":0,
			"source":0
		},
		{
			"sampler":0,
			"source":1
		},
		{
			"sampler":0,
			"source":2
		},
		{
			"sampler":0,
			"source":3
		}
	],
	"images":[
		{
			"mimeType":"image/jpeg",
			"name":"textured_mesh",
			"uri":"textured_mesh.jpg"
		},
		{
			"mimeType":"image/jpeg",
			"name":"textured_mesh",
			"uri":"textured_mesh-1.jpg"
		},
		{
			"mimeType":"image/jpeg",
			"name":"textured_mesh",
			"uri":"textured_mesh-2.jpg"
		},
		{
			"mimeType":"image/jpeg",
			"name":"textured_mesh",
			"uri":"textured_mesh-3.jpg"
		}
	],
	"accessors":[
		{
			"bufferView":0,
			"componentType":5126,
			"count":24642,
			"max":[
				0.9946060180664062,
				0.16291099786758423,
				0.5281530022621155
			],
			"min":[
				-0.9997810125350952,
				-0.1684180051088333,
				-0.5156880021095276
			],
			"type":"VEC3"
		},
		{
			"bufferView":1,
			"componentType":5126,
			"count":24642,
			"type":"VEC3"
		},
		{
			"bufferView":2,
			"componentType":5126,
			"count":24642,
			"type":"VEC2"
		},
		{
			"bufferView":3,
			"componentType":5123,
			"count":120000,
			"type":"SCALAR"
		},
		{
			"bufferView":4,
			"componentType":5126,
			"count":25380,
			"max":[
				0.992684006690979,
				0.2625020146369934,
				0.7285529971122742
			],
			"min":[
				-0.9969760179519653,
				-0.2666989862918854,
				-0.7180960178375244
			],
			"type":"VEC3"
		},
		{
			"bufferView":5,
			"componentType":5126,
			"count":25380,
			"type":"VEC3"
		},
		{
			"bufferView":6,
			"componentType":5126,
			"count":25380,
			"type":"VEC2"
		},
		{
			"bufferView":7,
			"componentType":5123,
			"count":120000,
			"type":"SCALAR"
		},
		{
			"bufferView":8,
			"componentType":5126,
			"count":27257,
			"max":[
				0.5766299962997437,
				0.27405500411987305,
				0.9996659755706787
			],
			"min":[
				-0.5688130259513855,
				-0.30491000413894653,
				-0.9939299821853638
			],
			"type":"VEC3"
		},
		{
			"bufferView":9,
			"componentType":5126,
			"count":27257,
			"type":"VEC3"
		},
		{
			"bufferView":10,
			"componentType":5126,
			"count":27257,
			"type":"VEC2"
		},
		{
			"bufferView":11,
			"componentType":5123,
			"count":120000,
			"type":"SCALAR"
		},
		{
			"bufferView":12,
			"componentType":5126,
			"count":27551,
			"max":[
				0.9941549897193909,
				0.2259169965982437,
				0.8314710259437561
			],
			"min":[
				-0.9998059868812561,
				-0.23714099824428558,
				-0.8217920064926147
			],
			"type":"VEC3"
		},
		{
			"bufferView":13,
			"componentType":5126,
			"count":27551,
			"type":"VEC3"
		},
		{
			"bufferView":14,
			"componentType":5126,
			"count":27551,
			"type":"VEC2"
		},
		{
			"bufferView":15,
			"componentType":5123,
			"count":120000,
			"type":"SCALAR"
		}
	],
	"bufferViews":[
		{
			"buffer":0,
			"byteLength":295704,
			"byteOffset":0,
			"target":34962
		},
		{
			"buffer":0,
			"byteLength":295704,
			"byteOffset":295704,
			"target":34962
		},
		{
			"buffer":0,
			"byteLength":197136,
			"byteOffset":591408,
			"target":34962
		},
		{
			"buffer":0,
			"byteLength":240000,
			"byteOffset":788544,
			"target":34963
		},
		{
			"buffer":0,
			"byteLength":304560,
			"byteOffset":1028544,
			"target":34962
		},
		{
			"buffer":0,
			"byteLength":304560,
			"byteOffset":1333104,
			"target":34962
		},
		{
			"buffer":0,
			"byteLength":203040,
			"byteOffset":1637664,
			"target":34962
		},
		{
			"buffer":0,
			"byteLength":240000,
			"byteOffset":1840704,
			"target":34963
		},
		{
			"buffer":0,
			"byteLength":327084,
			"byteOffset":2080704,
			"target":34962
		},
		{
			"buffer":0,
			"byteLength":327084,
			"byteOffset":2407788,
			"target":34962
		},
		{
			"buffer":0,
			"byteLength":218056,
			"byteOffset":2734872,
			"target":34962
		},
		{
			"buffer":0,
			"byteLength":240000,
			"byteOffset":2952928,
			"target":34963
		},
		{
			"buffer":0,
			"byteLength":330612,
			"byteOffset":3192928,
			"target":34962
		},
		{
			"buffer":0,
			"byteLength":330612,
			"byteOffset":3523540,
			"target":34962
		},
		{
			"buffer":0,
			"byteLength":220408,
			"byteOffset":3854152,
			"target":34962
		},
		{
			"buffer":0,
			"byteLength":240000,
			"byteOffset":4074560,
			"target":34963
		}
	],
	"samplers":[
		{
			"magFilter":9729,
			"minFilter":9987
		}
	],
	"buffers":[
		{
			"byteLength":4314560,
			"uri":"site2.bin"
		}
	]
}
